<?xml version="1.0" encoding="UTF-8" standalone="no"?>
<svg
   width="519168"
   height="120432.02"
   viewBox="0 0 519168 120432.02"
   version="1.1"
   xml:space="preserve"
   style="clip-rule:evenodd;fill-rule:evenodd;stroke-linejoin:round;stroke-miterlimit:1.41421"
   id="svg40"
   sodipodi:docname="Klipper-logo_svg.svg"
   inkscape:version="0.92.4 (unknown)"
   inkscape:export-filename="/home/kevin/src/reprap/firmware/klipper/logs/logo-20190416/klipper6.svg.png"
   inkscape:export-xdpi="96"
   inkscape:export-ydpi="96"
   xmlns:inkscape="http://www.inkscape.org/namespaces/inkscape"
   xmlns:sodipodi="http://sodipodi.sourceforge.net/DTD/sodipodi-0.dtd"
   xmlns="http://www.w3.org/2000/svg"
   xmlns:svg="http://www.w3.org/2000/svg"
   xmlns:rdf="http://www.w3.org/1999/02/22-rdf-syntax-ns#"
   xmlns:cc="http://creativecommons.org/ns#"
   xmlns:dc="http://purl.org/dc/elements/1.1/"><metadata
   id="metadata46"><rdf:RDF><cc:Work
       rdf:about=""><dc:format>image/svg+xml</dc:format><dc:type
         rdf:resource="http://purl.org/dc/dcmitype/StillImage" /><dc:title /></cc:Work></rdf:RDF></metadata><defs
   id="defs44" /><sodipodi:namedview
   pagecolor="#ffffff"
   bordercolor="#666666"
   borderopacity="1"
   objecttolerance="10"
   gridtolerance="10"
   guidetolerance="10"
   inkscape:pageopacity="0"
   inkscape:pageshadow="2"
   inkscape:window-width="1920"
   inkscape:window-height="1030"
   id="namedview42"
   showgrid="false"
   inkscape:zoom="0.95"
   inkscape:cx="327.89418"
   inkscape:cy="289.76441"
   inkscape:window-x="0"
   inkscape:window-y="0"
   inkscape:window-maximized="1"
   inkscape:current-layer="svg40"
   showguides="false"
   showborder="false"
   inkscape:showpageshadow="2"
   inkscape:pagecheckerboard="0"
   inkscape:deskcolor="#d1d1d1"
   inkscape:export-bgcolor="#ffffff00"><inkscape:grid
     type="xygrid"
     id="grid905"
     originx="-35328"
     originy="-260831.98"
     spacingy="1"
     spacingx="1"
     units="px"
     visible="false" /></sodipodi:namedview>
    <path
   style="fill:#3c4b5a;stroke-width:1.03281"
   d="m -35188,-260413.98 -58,57 1,25 v 19 l 57,57 h 27 v -1 l -76,-78.5 76,-77.5 v -1 z"
   id="path8"
   inkscape:connector-curvature="0"
   sodipodi:nodetypes="ccccccccccc" /><g
   transform="translate(-35328,-260831.94)"
   id="g17">
                <path
   d="m 83.041215,464.92108 h 0.001 l -0.04211,27.03092 h 11 l 73.000005,-74 v 14.301 l -63,64.199 63,65.5 v 14 l -73.000002,-75 h -13 c -2,0 -4,-2 -4,-4 h -2 v -33 h 2 c 0,-1 1,-2 3.00004,-2 1.99996,0 2.99996,1 2.99996,2 z"
   style="fill:#b12f35"
   id="path15"
   inkscape:connector-curvature="0"
   sodipodi:nodetypes="cccccccccccccccccc" />
            </g><g
   id="path839"
   transform="matrix(1.03281,0,0,1.0326797,-35303.689,-260853.91)">
                <rect
   x="21"
   y="426"
   width="30.015202"
   height="153"
   style="fill:#3c4b5a;fill-rule:nonzero"
   id="rect12" />
            </g><rect
   x="-35081"
   y="-260362.98"
   width="24"
   height="107"
   style="fill:#3c4b5a;stroke-width:1.1961"
   id="rect23" /><path
   d="m -34956.011,-260310.52 c 0,-10.9 -2.453,-19.36 -7.362,-25.42 -4.908,-6.05 -12.808,-9.07 -23.699,-9.07 -2.287,0 -4.673,0.1 -7.161,0.3 -2.488,0.2 -4.941,0.64 -7.362,1.31 v 60.3 c 2.152,1.48 5.01,2.86 8.572,4.14 3.563,1.27 7.362,1.91 11.396,1.91 8.875,0 15.364,-3.02 19.465,-9.07 4.101,-6.05 6.151,-14.19 6.151,-24.4 z m 25.011,-0.41 c 0,8.07 -1.042,15.46 -3.127,22.18 -2.084,6.73 -5.075,12.51 -8.975,17.35 -3.899,4.84 -8.774,8.6 -14.623,11.29 -5.85,2.69 -12.473,4.04 -19.867,4.04 -4.976,0 -9.548,-0.61 -13.716,-1.82 -4.168,-1.21 -7.597,-2.55 -10.287,-4.03 v 40.94 H -35026 v -139.36 c 4.975,-1.34 11.094,-2.62 18.355,-3.83 7.261,-1.21 14.926,-1.81 22.993,-1.81 8.337,0 15.8,1.27 22.389,3.83 6.588,2.55 12.203,6.22 16.841,10.99 4.639,4.77 8.203,10.55 10.691,17.34 2.486,6.79 3.731,14.42 3.731,22.89 z"
   style="fill:#3c4b5a;fill-rule:nonzero;stroke-width:1.20012"
   id="path25"
   inkscape:connector-curvature="0" /><path
   d="m -34835.011,-260310.52 c 0,-10.9 -2.454,-19.36 -7.362,-25.42 -4.907,-6.05 -12.807,-9.07 -23.699,-9.07 -2.286,0 -4.673,0.1 -7.16,0.3 -2.488,0.2 -4.941,0.64 -7.362,1.31 v 60.3 c 2.151,1.48 5.008,2.86 8.572,4.14 3.563,1.27 7.362,1.91 11.395,1.91 8.875,0 15.363,-3.02 19.464,-9.07 4.101,-6.05 6.152,-14.19 6.152,-24.4 z m 25.011,-0.41 c 0,8.07 -1.043,15.46 -3.127,22.18 -2.084,6.73 -5.076,12.51 -8.976,17.35 -3.899,4.84 -8.773,8.6 -14.623,11.29 -5.848,2.69 -12.471,4.04 -19.867,4.04 -4.974,0 -9.546,-0.61 -13.714,-1.82 -4.169,-1.21 -7.597,-2.55 -10.287,-4.03 v 40.94 H -34905 v -139.36 c 4.976,-1.34 11.093,-2.62 18.355,-3.83 7.261,-1.21 14.925,-1.81 22.993,-1.81 8.338,0 15.8,1.27 22.388,3.83 6.589,2.55 12.203,6.22 16.842,10.99 4.639,4.77 8.203,10.55 10.691,17.34 2.486,6.79 3.731,14.42 3.731,22.89 z"
   style="fill:#3c4b5a;fill-rule:nonzero;stroke-width:1.20011"
   id="path27"
   inkscape:connector-curvature="0" /><path
   d="m -34791,-260310.98 c 0,-9.3 1.375,-17.45 4.126,-24.46 2.75,-7.01 6.406,-12.84 10.969,-17.49 4.562,-4.65 9.795,-8.16 15.699,-10.52 5.904,-2.36 11.942,-3.53 18.115,-3.53 14.491,0 25.795,4.51 33.913,13.54 8.119,9.03 12.178,22.51 12.178,40.44 0,1.35 -0.03,2.86 -0.101,4.55 -0.07,1.68 -0.167,3.2 -0.301,4.55 h -69.44 c 0.671,8.49 3.657,15.06 8.957,19.71 5.3,4.65 12.982,6.98 23.046,6.98 5.903,0 11.305,-0.54 16.202,-1.62 4.897,-1.08 8.755,-2.22 11.573,-3.44 l 3.221,20.02 c -1.342,0.67 -3.187,1.38 -5.536,2.12 -2.347,0.74 -5.031,1.42 -8.051,2.02 -3.018,0.61 -6.272,1.12 -9.761,1.52 -3.489,0.4 -7.044,0.61 -10.667,0.61 -9.26,0 -17.31,-1.39 -24.152,-4.15 -6.844,-2.76 -12.48,-6.6 -16.908,-11.52 -4.428,-4.92 -7.715,-10.72 -9.863,-17.39 -2.146,-6.67 -3.219,-13.99 -3.219,-21.94 z m 70.645,-10.92 c 0,-3.37 -0.469,-6.57 -1.408,-9.6 -0.939,-3.03 -2.315,-5.66 -4.126,-7.89 -1.812,-2.22 -4.025,-3.97 -6.642,-5.25 -2.617,-1.28 -5.736,-1.92 -9.359,-1.92 -3.757,0 -7.044,0.7 -9.863,2.12 -2.818,1.41 -5.199,3.27 -7.145,5.56 -1.945,2.29 -3.455,4.92 -4.528,7.88 -1.073,2.97 -1.812,6 -2.215,9.1 z"
   style="fill:#3c4b5a;fill-rule:nonzero;stroke-width:1.20038"
   id="path29"
   inkscape:connector-curvature="0" /><path
   d="m -34610.213,-260339.72 c -2.006,-0.67 -4.781,-1.38 -8.326,-2.12 -3.545,-0.74 -7.657,-1.11 -12.338,-1.11 -2.676,0 -5.518,0.27 -8.527,0.81 -3.01,0.54 -5.117,1.01 -6.32,1.41 v 84.75 H -34670 v -100.72 c 4.681,-1.76 10.532,-3.41 17.554,-4.96 7.023,-1.55 14.814,-2.32 23.374,-2.32 1.605,0 3.477,0.1 5.618,0.3 2.139,0.2 4.28,0.47 6.42,0.81 2.14,0.33 4.214,0.74 6.219,1.21 2.007,0.47 3.612,0.91 4.815,1.32 z"
   style="fill:#3c4b5a;fill-rule:nonzero;stroke-width:1.19865"
   id="path31"
   inkscape:connector-curvature="0" />
<rect
   id="rect12-6"
   style="clip-rule:evenodd;fill:#3c4b5a;fill-rule:nonzero;stroke-width:1.03281;stroke-linejoin:round;stroke-miterlimit:1.41421"
   height="158"
   width="24"
   y="-260413.98"
   x="-35137" /></svg>
