<?xml version="1.0" standalone="no"?>
<!DOCTYPE svg PUBLIC "-//W3C//DTD SVG 20010904//EN"
 "http://www.w3.org/TR/2001/REC-SVG-20010904/DTD/svg10.dtd">
<svg version="1.0" xmlns="http://www.w3.org/2000/svg"
 width="4700.000000pt" height="2820.000000pt" viewBox="0 0 4700.000000 2820.000000"
 preserveAspectRatio="xMidYMid meet">

<g transform="translate(0.000000,2820.000000) scale(0.100000,-0.100000)"
fill="#000000" stroke="none">
<path d="M753 27813 c75 -76 4964 -4892 10865 -10703 8704 -8573 10733 -10575
10757 -10620 l30 -55 0 -2240 0 -2240 -27 -50 c-31 -59 -57 -84 -118 -116
l-45 -24 -3500 0 c-3213 -1 -3505 -2 -3555 -17 -111 -33 -166 -59 -223 -103
-67 -53 -139 -146 -174 -225 -66 -146 -96 -370 -74 -550 13 -103 68 -283 103
-334 98 -142 179 -208 312 -254 l81 -27 4862 -3 c4844 -2 4862 -2 4915 18 112
42 248 177 285 285 17 47 18 209 18 2965 l0 2915 27 51 c20 38 2520 2583
10373 10560 5691 5780 10435 10598 10543 10707 l197 197 -1670 0 -1670 0
-9533 -9700 c-7752 -7889 -9542 -9705 -9583 -9725 -70 -36 -157 -36 -226 -2
-37 19 -2419 2355 -9917 9726 l-9868 9701 -1661 0 -1662 0 138 -137z"/>
<path d="M250 23249 l0 -4355 8475 -8312 8475 -8312 2350 0 2350 0 -2 2008 -3
2008 -10600 10438 c-5830 5741 -10700 10538 -10822 10660 l-223 221 0 -4356z"/>
<path d="M36258 16933 l-10483 -10646 -3 -2014 -2 -2013 2343 2 2344 3 8146
8313 8147 8313 0 4344 c0 2390 -2 4345 -4 4345 -3 0 -4722 -4791 -10488
-10647z"/>
</g>
</svg>
